<svg width="83" height="73" viewBox="0 0 83 73" fill="none" xmlns="http://www.w3.org/2000/svg">
<path d="M72.75 9.875H61.9219L56.5977 1.89063C56.3124 1.46309 55.9261 1.11251 55.473 0.869944C55.0199 0.627376 54.514 0.500309 54 0.5H29C28.486 0.500309 27.9801 0.627376 27.527 0.869944C27.0739 1.11251 26.6876 1.46309 26.4023 1.89063L21.0742 9.875H10.25C7.7636 9.875 5.37903 10.8627 3.62087 12.6209C1.86272 14.379 0.875 16.7636 0.875 19.25V63C0.875 65.4864 1.86272 67.871 3.62087 69.6291C5.37903 71.3873 7.7636 72.375 10.25 72.375H72.75C75.2364 72.375 77.621 71.3873 79.3791 69.6291C81.1373 67.871 82.125 65.4864 82.125 63V19.25C82.125 16.7636 81.1373 14.379 79.3791 12.6209C77.621 10.8627 75.2364 9.875 72.75 9.875ZM75.875 63C75.875 63.8288 75.5458 64.6237 74.9597 65.2097C74.3737 65.7958 73.5788 66.125 72.75 66.125H10.25C9.4212 66.125 8.62634 65.7958 8.04029 65.2097C7.45424 64.6237 7.125 63.8288 7.125 63V19.25C7.125 18.4212 7.45424 17.6263 8.04029 17.0403C8.62634 16.4542 9.4212 16.125 10.25 16.125H22.75C23.2646 16.1253 23.7713 15.9986 24.2252 15.756C24.679 15.5134 25.066 15.1625 25.3516 14.7344L30.6719 6.75H52.3242L57.6484 14.7344C57.934 15.1625 58.321 15.5134 58.7748 15.756C59.2286 15.9986 59.7354 16.1253 60.25 16.125H72.75C73.5788 16.125 74.3737 16.4542 74.9597 17.0403C75.5458 17.6263 75.875 18.4212 75.875 19.25V63ZM41.5 22.375C38.1006 22.375 34.7776 23.383 31.9511 25.2716C29.1247 27.1602 26.9217 29.8445 25.6208 32.9851C24.3199 36.1257 23.9796 39.5816 24.6428 42.9156C25.3059 46.2497 26.9429 49.3122 29.3466 51.7159C31.7503 54.1196 34.8128 55.7566 38.1469 56.4198C41.4809 57.0829 44.9368 56.7426 48.0774 55.4417C51.218 54.1408 53.9023 51.9378 55.7909 49.1114C57.6795 46.2849 58.6875 42.9619 58.6875 39.5625C58.6823 35.0057 56.8699 30.637 53.6477 27.4148C50.4255 24.1926 46.0568 22.3802 41.5 22.375ZM41.5 50.5C39.3368 50.5 37.2221 49.8585 35.4235 48.6567C33.6248 47.4549 32.2229 45.7467 31.3951 43.7481C30.5672 41.7495 30.3506 39.5504 30.7727 37.4287C31.1947 35.307 32.2364 33.3582 33.766 31.8285C35.2957 30.2989 37.2445 29.2572 39.3662 28.8352C41.4879 28.4131 43.687 28.6297 45.6856 29.4576C47.6842 30.2854 49.3924 31.6873 50.5942 33.486C51.796 35.2846 52.4375 37.3993 52.4375 39.5625C52.4375 42.4633 51.2852 45.2453 49.234 47.2965C47.1828 49.3477 44.4008 50.5 41.5 50.5Z" fill="#C9C9C9"/>
</svg>
