<svg width="18" height="13" viewBox="0 0 18 13" fill="none" xmlns="http://www.w3.org/2000/svg">
<path d="M8.8 4.1C8.16348 4.1 7.55303 4.35286 7.10294 4.80294C6.65286 5.25303 6.4 5.86348 6.4 6.5C6.4 7.13652 6.65286 7.74697 7.10294 8.19706C7.55303 8.64714 8.16348 8.9 8.8 8.9C9.43652 8.9 10.047 8.64714 10.4971 8.19706C10.9471 7.74697 11.2 7.13652 11.2 6.5C11.2 5.86348 10.9471 5.25303 10.4971 4.80294C10.047 4.35286 9.43652 4.1 8.8 4.1ZM8.8 10.5C7.73913 10.5 6.72172 10.0786 5.97157 9.32843C5.22143 8.57828 4.8 7.56087 4.8 6.5C4.8 5.43913 5.22143 4.42172 5.97157 3.67157C6.72172 2.92143 7.73913 2.5 8.8 2.5C9.86087 2.5 10.8783 2.92143 11.6284 3.67157C12.3786 4.42172 12.8 5.43913 12.8 6.5C12.8 7.56087 12.3786 8.57828 11.6284 9.32843C10.8783 10.0786 9.86087 10.5 8.8 10.5ZM8.8 0.5C4.8 0.5 1.384 2.988 0 6.5C1.384 10.012 4.8 12.5 8.8 12.5C12.8 12.5 16.216 10.012 17.6 6.5C16.216 2.988 12.8 0.5 8.8 0.5Z" fill="#202020"/>
</svg>
